dataset
version=1
nRows=19
nColumns=39
inDegrees=no
endheader
time	sternoclavicular_r2	sternoclavicular_r3	unrotscap_r3	unrotscap_r2	acromioclavicular_r2	acromioclavicular_r3	acromioclavicular_r1	unrothum_r1	unrothum_r3	unrothum_r2	elv_angle	shoulder_elv	shoulder1_r2	shoulder_rot	elbow_flexion	pro_sup	deviation	flexion	cmc_abduction	cmc_flexion	mp_flexion	ip_flexion	mcp2_flexion	mcp2_abduction	pm2_flexion	md2_flexion	mcp3_flexion	mcp3_abduction	pm3_flexion	md3_flexion	mcp4_flexion	mcp4_abduction	pm4_flexion	md4_flexion	mcp5_flexion	mcp5_abduction	pm5_flexion	md5_flexion
3.165000	-0.036444	-0.198444	0.010303	0.091429	0.048031	0.208919	0.123400	0.217838	0.130770	0.012179	0.074156	0.027437	0.146525	0.146525	2.475179	1.286305	0.000000	0.000000	0.000000	0.000000	0.000000	0.000000	0.000000	0.000000	0.000000	0.000000	0.000000	0.000000	0.000000	0.000000	0.000000	0.000000	0.000000	0.000000	0.000000	0.000000	0.000000	0.000000
3.170000	-0.036304	-0.198585	0.010373	0.091483	0.048232	0.208223	0.122835	0.217132	0.130128	0.012393	0.074045	0.027437	0.146525	0.146525	2.474933	1.286347	0.000000	0.000000	0.000000	0.000000	0.000000	0.000000	0.000000	0.000000	0.000000	0.000000	0.000000	0.000000	0.000000	0.000000	0.000000	0.000000	0.000000	0.000000	0.000000	0.000000	0.000000	0.000000
3.175000	-0.036162	-0.198727	0.010453	0.091542	0.048443	0.207503	0.122241	0.216378	0.129474	0.012625	0.073940	0.027437	0.146525	0.146525	2.474637	1.286390	0.000000	0.000000	0.000000	0.000000	0.000000	0.000000	0.000000	0.000000	0.000000	0.000000	0.000000	0.000000	0.000000	0.000000	0.000000	0.000000	0.000000	0.000000	0.000000	0.000000	0.000000	0.000000
3.180000	-0.036018	-0.198870	0.010544	0.091603	0.048661	0.206759	0.121617	0.215573	0.128809	0.012877	0.073843	0.027437	0.146525	0.146525	2.474286	1.286436	0.000000	0.000000	0.000000	0.000000	0.000000	0.000000	0.000000	0.000000	0.000000	0.000000	0.000000	0.000000	0.000000	0.000000	0.000000	0.000000	0.000000	0.000000	0.000000	0.000000	0.000000	0.000000
3.185000	-0.035872	-0.199015	0.010647	0.091669	0.048889	0.205991	0.120962	0.214715	0.128133	0.013150	0.073752	0.027437	0.146525	0.146525	2.473880	1.286484	0.000000	0.000000	0.000000	0.000000	0.000000	0.000000	0.000000	0.000000	0.000000	0.000000	0.000000	0.000000	0.000000	0.000000	0.000000	0.000000	0.000000	0.000000	0.000000	0.000000	0.000000	0.000000
3.190000	-0.035723	-0.199163	0.010762	0.091737	0.049125	0.205198	0.120276	0.213803	0.127447	0.013442	0.073669	0.027437	0.146525	0.146525	2.473415	1.286535	0.000000	0.000000	0.000000	0.000000	0.000000	0.000000	0.000000	0.000000	0.000000	0.000000	0.000000	0.000000	0.000000	0.000000	0.000000	0.000000	0.000000	0.000000	0.000000	0.000000	0.000000	0.000000
3.195000	-0.035571	-0.199312	0.010890	0.091809	0.049369	0.204381	0.119557	0.212834	0.126753	0.013756	0.073595	0.027437	0.146525	0.146525	2.472888	1.286588	0.000000	0.000000	0.000000	0.000000	0.000000	0.000000	0.000000	0.000000	0.000000	0.000000	0.000000	0.000000	0.000000	0.000000	0.000000	0.000000	0.000000	0.000000	0.000000	0.000000	0.000000	0.000000
3.200000	-0.035417	-0.199465	0.011031	0.091884	0.049622	0.203539	0.118806	0.211806	0.126050	0.014092	0.073530	0.027437	0.146525	0.146525	2.472297	1.286645	0.000000	0.000000	0.000000	0.000000	0.000000	0.000000	0.000000	0.000000	0.000000	0.000000	0.000000	0.000000	0.000000	0.000000	0.000000	0.000000	0.000000	0.000000	0.000000	0.000000	0.000000	0.000000
3.205000	-0.035259	-0.199620	0.011185	0.091962	0.049883	0.202672	0.118021	0.210717	0.125339	0.014450	0.073473	0.027437	0.146525	0.146525	2.471638	1.286704	0.000000	0.000000	0.000000	0.000000	0.000000	0.000000	0.000000	0.000000	0.000000	0.000000	0.000000	0.000000	0.000000	0.000000	0.000000	0.000000	0.000000	0.000000	0.000000	0.000000	0.000000	0.000000
3.210000	-0.035099	-0.199779	0.011353	0.092042	0.050152	0.201780	0.117203	0.209566	0.124623	0.014831	0.073426	0.027437	0.146525	0.146525	2.470909	1.286766	0.000000	0.000000	0.000000	0.000000	0.000000	0.000000	0.000000	0.000000	0.000000	0.000000	0.000000	0.000000	0.000000	0.000000	0.000000	0.000000	0.000000	0.000000	0.000000	0.000000	0.000000	0.000000
3.215000	-0.034935	-0.199942	0.011536	0.092125	0.050429	0.200864	0.116350	0.208350	0.123900	0.015235	0.073390	0.027437	0.146525	0.146525	2.470107	1.286832	0.000000	0.000000	0.000000	0.000000	0.000000	0.000000	0.000000	0.000000	0.000000	0.000000	0.000000	0.000000	0.000000	0.000000	0.000000	0.000000	0.000000	0.000000	0.000000	0.000000	0.000000	0.000000
3.220000	-0.034768	-0.200109	0.011733	0.092211	0.050713	0.199922	0.115462	0.207067	0.123173	0.015663	0.073363	0.027437	0.146525	0.146525	2.469229	1.286901	0.000000	0.000000	0.000000	0.000000	0.000000	0.000000	0.000000	0.000000	0.000000	0.000000	0.000000	0.000000	0.000000	0.000000	0.000000	0.000000	0.000000	0.000000	0.000000	0.000000	0.000000	0.000000
3.225000	-0.034598	-0.200281	0.011946	0.092298	0.051005	0.198955	0.114539	0.205715	0.122442	0.016116	0.073348	0.027437	0.146525	0.146525	2.468271	1.286973	0.000000	0.000000	0.000000	0.000000	0.000000	0.000000	0.000000	0.000000	0.000000	0.000000	0.000000	0.000000	0.000000	0.000000	0.000000	0.000000	0.000000	0.000000	0.000000	0.000000	0.000000	0.000000
3.230000	-0.034423	-0.200458	0.012174	0.092388	0.051304	0.197964	0.113580	0.204292	0.121709	0.016593	0.073344	0.027437	0.146525	0.146525	2.467231	1.287049	0.000000	0.000000	0.000000	0.000000	0.000000	0.000000	0.000000	0.000000	0.000000	0.000000	0.000000	0.000000	0.000000	0.000000	0.000000	0.000000	0.000000	0.000000	0.000000	0.000000	0.000000	0.000000
3.235000	-0.034244	-0.200641	0.012418	0.092479	0.051611	0.196948	0.112584	0.202798	0.120974	0.017095	0.073351	0.027437	0.146525	0.146525	2.466106	1.287128	0.000000	0.000000	0.000000	0.000000	0.000000	0.000000	0.000000	0.000000	0.000000	0.000000	0.000000	0.000000	0.000000	0.000000	0.000000	0.000000	0.000000	0.000000	0.000000	0.000000	0.000000	0.000000
3.240000	-0.034061	-0.200831	0.012678	0.092572	0.051923	0.195907	0.111552	0.201229	0.120238	0.017622	0.073370	0.027437	0.146525	0.146525	2.464892	1.287212	0.000000	0.000000	0.000000	0.000000	0.000000	0.000000	0.000000	0.000000	0.000000	0.000000	0.000000	0.000000	0.000000	0.000000	0.000000	0.000000	0.000000	0.000000	0.000000	0.000000	0.000000	0.000000
3.245000	-0.033874	-0.201028	0.012955	0.092665	0.052242	0.194841	0.110483	0.199584	0.119502	0.018175	0.073402	0.027437	0.146525	0.146525	2.463586	1.287300	0.000000	0.000000	0.000000	0.000000	0.000000	0.000000	0.000000	0.000000	0.000000	0.000000	0.000000	0.000000	0.000000	0.000000	0.000000	0.000000	0.000000	0.000000	0.000000	0.000000	0.000000	0.000000
3.250000	-0.033682	-0.201232	0.013249	0.092760	0.052567	0.193751	0.109377	0.197862	0.118768	0.018754	0.073445	0.027437	0.146525	0.146525	2.462185	1.287391	0.000000	0.000000	0.000000	0.000000	0.000000	0.000000	0.000000	0.000000	0.000000	0.000000	0.000000	0.000000	0.000000	0.000000	0.000000	0.000000	0.000000	0.000000	0.000000	0.000000	0.000000	0.000000
3.255000	-0.033485	-0.201444	0.013560	0.092855	0.052898	0.192637	0.108233	0.196062	0.118037	0.019358	0.073501	0.027437	0.146525	0.146525	2.460686	1.287488	0.000000	0.000000	0.000000	0.000000	0.000000	0.000000	0.000000	0.000000	0.000000	0.000000	0.000000	0.000000	0.000000	0.000000	0.000000	0.000000	0.000000	0.000000	0.000000	0.000000	0.000000	0.000000
